{"title":"[18+] Romasanta The Warewolf Hunt (2004) BRrip 480p x264 Dual Au","uid":9254234,"size":742947936,"categoryP":"video","categoryS":"hd___movies","magnet":"?xt=urn:btih:9e5a158a1a9a04e4445dffcac9faedf8d26599aa&amp;dn=%5B18%2B%5D+Romasanta+The+Warewolf+Hunt+%282004%29+BRrip+480p+x264+Dual+Au&amp;tr=udp%3A%2F%2Ftracker.openbittorrent.com%3A80&amp;tr=udp%3A%2F%2Fopen.demonii.com%3A1337&amp;tr=udp%3A%2F%2Ftracker.coppersurfer.tk%3A6969&amp;tr=udp%3A%2F%2Fexodus.desync.com%3A6969","seeders":2,"leechers":2,"uploader":"Xdesiars","files":2,"time":1385524170,"description":"Format                                   : Matroska\nFormat version                           : Version 4 / Version 2\nFile size                                : 696 MiB\nDuration                                 : 1h 44mn\nOverall bit rate                         : 934 Kbps\nMovie name                               : Romasanta A Warewolf Hunt (2004) BRrip 480p x264 Dual Audio [Eng-Hindi] XdesiArsenal [ExDRS]\nEncoded date                             : UTC 2013-11-27 01:51:05\nWriting application                      : mkvmerge v6.4.1 ('Omega Point') built on Sep 16 2013 22:05:10\nWriting library                          : libebml v1.3.0 + libmatroska v1.4.1\n\nVideo\nID                                       : 1\nFormat                                   : MPEG-4 Visual\nFormat profile                           : Advanced Simple@L5\nFormat settings, BVOP                    : Yes\nFormat settings, QPel                    : No\nFormat settings, GMC                     : No warppoints\nFormat settings, Matrix                  : Default (H.263)\nCodec ID                                 : V_MS/VFW/FOURCC / XVID\nCodec ID/Hint                            : XviD\nDuration                                 : 1h 44mn\nBit rate                                 : 756 Kbps\nWidth                                    : 640 pixels\nHeight                                   : 272 pixels\nDisplay aspect ratio                     : 16:9\nOriginal display aspect ratio            : 2.35:1\nFrame rate mode                          : Constant\nFrame rate                               : 25.000 fps\nColor space                              : YUV\nChroma subsampling                       : 4:2:0\nBit depth                                : 8 bits\nScan type                                : Progressive\nCompression mode                         : Lossy\nBits/(Pixel*Frame)                       : 0.174\nStream size                              : 563 MiB (81%)\nTitle                                    : Romasanta A Warewolf Hunt (2004) by XdesiArsenal\nWriting library                          : XviD 1.0.3 (UTC 2004-12-20)\nLanguage                                 : English\nDefault                                  : Yes\nForced                                   : No\n\nAudio #1\nID                                       : 2\nFormat                                   : MPEG Audio\nFormat version                           : Version 1\nFormat profile                           : Layer 3\nMode                                     : Joint stereo\nMode extension                           : MS Stereo\nCodec ID                                 : A_MPEG/L3\nCodec ID/Hint                            : MP3\nDuration                                 : 1h 44mn\nBit rate mode                            : Constant\nBit rate                                 : 64.0 Kbps\nChannel(s)                               : 2 channels\nSampling rate                            : 48.0 KHz\nCompression mode                         : Lossy\nStream size                              : 47.7 MiB (7%)\nTitle                                    : XdesiArsenal\nLanguage                                 : English\nDefault                                  : No\nForced                                   : No\n\nAudio #2\nID                                       : 3\nFormat                                   : MPEG Audio\nFormat version                           : Version 1\nFormat profile                           : Layer 3\nMode                                     : Joint stereo\nMode extension                           : MS Stereo\nCodec ID                                 : A_MPEG/L3\nCodec ID/Hint                            : MP3\nDuration                                 : 1h 44mn\nBit rate mode                            : Constant\nBit rate                                 : 96.0 Kbps\nChannel(s)                               : 2 channels\nSampling rate                            : 48.0 KHz\nCompression mode                         : Lossy\nDelay relative to video                  : 8ms\nStream size                              : 71.5 MiB (10%)\nTitle                                    : XdesiArsenal\nWriting library                          : LAME3.98.2\nLanguage                                 : Hindi\nDefault                                  : Yes\nForced                                   : No\n","torrent":{"xt":"urn:btih:9e5a158a1a9a04e4445dffcac9faedf8d26599aa","amp;dn":"%5B18%2B%5D+Romasanta+The+Warewolf+Hunt+%282004%29+BRrip+480p+x264+Dual+Au","amp;tr":["udp%3A%2F%2Ftracker.openbittorrent.com%3A80","udp%3A%2F%2Fopen.demonii.com%3A1337","udp%3A%2F%2Ftracker.coppersurfer.tk%3A6969","udp%3A%2F%2Fexodus.desync.com%3A6969"],"infoHash":"9e5a158a1a9a04e4445dffcac9faedf8d26599aa","infoHashBuffer":{"type":"Buffer","data":[158,90,21,138,26,154,4,228,68,93,255,202,201,250,237,248,210,101,153,170]},"announce":[],"urlList":[]}}